<mxfile host="app.diagrams.net" modified="2022-09-12T15:38:32.745Z" agent="5.0 (Windows NT 10.0; Win64; x64) AppleWebKit/537.36 (KHTML, like Gecko) Chrome/105.0.0.0 Safari/537.36" etag="ExB7bkeD2E7DlX-TB88s" version="20.3.0" type="github">
  <diagram id="kgpKYQtTHZ0yAKxKKP6v" name="Page-1">
    <mxGraphModel dx="1473" dy="625" grid="1" gridSize="10" guides="1" tooltips="1" connect="1" arrows="1" fold="1" page="1" pageScale="1" pageWidth="850" pageHeight="1100" math="0" shadow="0">
      <root>
        <mxCell id="0" />
        <mxCell id="1" parent="0" />
        <mxCell id="Tf2ZdH61zpF64rHPYTEZ-88" value="" style="html=1;shadow=0;dashed=0;align=center;verticalAlign=middle;shape=mxgraph.arrows2.twoWayArrow;dy=0.65;dx=22;" vertex="1" parent="1">
          <mxGeometry x="970" y="580" width="280" height="40" as="geometry" />
        </mxCell>
        <mxCell id="Tf2ZdH61zpF64rHPYTEZ-50" value="" style="endArrow=none;dashed=1;html=1;dashPattern=1 3;strokeWidth=2;rounded=0;shadow=0;fillColor=#FF3D03;elbow=vertical;strokeColor=#E84B46;" edge="1" parent="1" source="3nuBFxr9cyL0pnOWT2aG-1" target="Tf2ZdH61zpF64rHPYTEZ-1">
          <mxGeometry width="50" height="50" relative="1" as="geometry">
            <mxPoint x="1070" y="520" as="sourcePoint" />
            <mxPoint x="1120" y="470" as="targetPoint" />
            <Array as="points">
              <mxPoint x="1230" y="470" />
            </Array>
          </mxGeometry>
        </mxCell>
        <mxCell id="3nuBFxr9cyL0pnOWT2aG-1" value="Agent 1" style="shape=umlLifeline;perimeter=lifelinePerimeter;container=1;collapsible=0;recursiveResize=0;rounded=0;shadow=0;strokeWidth=1;" parent="1" vertex="1">
          <mxGeometry x="880" y="330" width="100" height="870" as="geometry" />
        </mxCell>
        <mxCell id="3nuBFxr9cyL0pnOWT2aG-2" value="" style="points=[];perimeter=orthogonalPerimeter;rounded=0;shadow=0;strokeWidth=1;" parent="3nuBFxr9cyL0pnOWT2aG-1" vertex="1">
          <mxGeometry x="45" y="70" width="10" height="400" as="geometry" />
        </mxCell>
        <mxCell id="Tf2ZdH61zpF64rHPYTEZ-83" value="Connectivity Check" style="shape=offPageConnector;whiteSpace=wrap;html=1;" vertex="1" parent="3nuBFxr9cyL0pnOWT2aG-1">
          <mxGeometry x="10" y="240" width="80" height="80" as="geometry" />
        </mxCell>
        <mxCell id="3nuBFxr9cyL0pnOWT2aG-5" value="Signaling Server" style="shape=umlLifeline;perimeter=lifelinePerimeter;container=1;collapsible=0;recursiveResize=0;rounded=0;shadow=0;strokeWidth=1;" parent="1" vertex="1">
          <mxGeometry x="1060" y="330" width="100" height="870" as="geometry" />
        </mxCell>
        <mxCell id="3nuBFxr9cyL0pnOWT2aG-6" value="" style="points=[];perimeter=orthogonalPerimeter;rounded=0;shadow=0;strokeWidth=1;" parent="3nuBFxr9cyL0pnOWT2aG-5" vertex="1">
          <mxGeometry x="45" y="130" width="10" height="270" as="geometry" />
        </mxCell>
        <mxCell id="Tf2ZdH61zpF64rHPYTEZ-65" value="Agent 2 Answer msg" style="text;html=1;align=center;verticalAlign=middle;resizable=0;points=[];autosize=1;strokeColor=none;fillColor=none;" vertex="1" parent="3nuBFxr9cyL0pnOWT2aG-5">
          <mxGeometry x="-100" y="196" width="130" height="30" as="geometry" />
        </mxCell>
        <mxCell id="Tf2ZdH61zpF64rHPYTEZ-64" value="" style="endArrow=classic;html=1;rounded=0;shadow=0;fillColor=#FFFA6E;elbow=vertical;" edge="1" parent="3nuBFxr9cyL0pnOWT2aG-5">
          <mxGeometry width="50" height="50" relative="1" as="geometry">
            <mxPoint x="42.5" y="220" as="sourcePoint" />
            <mxPoint x="-122.5" y="220" as="targetPoint" />
            <Array as="points">
              <mxPoint x="-7.5" y="220" />
            </Array>
          </mxGeometry>
        </mxCell>
        <mxCell id="Tf2ZdH61zpF64rHPYTEZ-1" value="Agent 2" style="shape=umlLifeline;perimeter=lifelinePerimeter;container=1;collapsible=0;recursiveResize=0;rounded=0;shadow=0;strokeWidth=1;" vertex="1" parent="1">
          <mxGeometry x="1240" y="330" width="100" height="870" as="geometry" />
        </mxCell>
        <mxCell id="Tf2ZdH61zpF64rHPYTEZ-2" value="" style="points=[];perimeter=orthogonalPerimeter;rounded=0;shadow=0;strokeWidth=1;" vertex="1" parent="Tf2ZdH61zpF64rHPYTEZ-1">
          <mxGeometry x="45" y="70" width="10" height="560" as="geometry" />
        </mxCell>
        <mxCell id="Tf2ZdH61zpF64rHPYTEZ-67" value="" style="endArrow=classic;html=1;rounded=0;shadow=0;fillColor=#FFFA6E;elbow=vertical;" edge="1" parent="Tf2ZdH61zpF64rHPYTEZ-1">
          <mxGeometry width="50" height="50" relative="1" as="geometry">
            <mxPoint x="40" y="220" as="sourcePoint" />
            <mxPoint x="-125" y="220" as="targetPoint" />
            <Array as="points">
              <mxPoint x="-10" y="220" />
            </Array>
          </mxGeometry>
        </mxCell>
        <mxCell id="Tf2ZdH61zpF64rHPYTEZ-87" value="Conectivity&amp;nbsp;&lt;br&gt;Check" style="shape=offPageConnector;whiteSpace=wrap;html=1;" vertex="1" parent="Tf2ZdH61zpF64rHPYTEZ-1">
          <mxGeometry x="10" y="240" width="80" height="80" as="geometry" />
        </mxCell>
        <mxCell id="Tf2ZdH61zpF64rHPYTEZ-12" value="" style="edgeStyle=orthogonalEdgeStyle;rounded=0;orthogonalLoop=1;jettySize=auto;html=1;" edge="1" parent="1" source="Tf2ZdH61zpF64rHPYTEZ-6" target="Tf2ZdH61zpF64rHPYTEZ-11">
          <mxGeometry relative="1" as="geometry" />
        </mxCell>
        <mxCell id="Tf2ZdH61zpF64rHPYTEZ-6" value="Obtain itself ICE candicates" style="rounded=0;whiteSpace=wrap;html=1;" vertex="1" parent="1">
          <mxGeometry x="70" y="740" width="120" height="60" as="geometry" />
        </mxCell>
        <mxCell id="Tf2ZdH61zpF64rHPYTEZ-10" style="edgeStyle=orthogonalEdgeStyle;rounded=0;orthogonalLoop=1;jettySize=auto;html=1;entryX=0.5;entryY=0;entryDx=0;entryDy=0;" edge="1" parent="1" source="Tf2ZdH61zpF64rHPYTEZ-9" target="Tf2ZdH61zpF64rHPYTEZ-6">
          <mxGeometry relative="1" as="geometry" />
        </mxCell>
        <mxCell id="Tf2ZdH61zpF64rHPYTEZ-9" value="Start" style="ellipse;whiteSpace=wrap;html=1;" vertex="1" parent="1">
          <mxGeometry x="70" y="600" width="120" height="80" as="geometry" />
        </mxCell>
        <mxCell id="Tf2ZdH61zpF64rHPYTEZ-14" value="" style="edgeStyle=orthogonalEdgeStyle;rounded=0;orthogonalLoop=1;jettySize=auto;html=1;" edge="1" parent="1" source="Tf2ZdH61zpF64rHPYTEZ-11" target="Tf2ZdH61zpF64rHPYTEZ-13">
          <mxGeometry relative="1" as="geometry" />
        </mxCell>
        <mxCell id="Tf2ZdH61zpF64rHPYTEZ-11" value="Forming SDP msg offer carry out ICE cadicates" style="whiteSpace=wrap;html=1;rounded=0;" vertex="1" parent="1">
          <mxGeometry x="70" y="870" width="120" height="60" as="geometry" />
        </mxCell>
        <mxCell id="Tf2ZdH61zpF64rHPYTEZ-18" value="" style="edgeStyle=orthogonalEdgeStyle;rounded=0;orthogonalLoop=1;jettySize=auto;html=1;" edge="1" parent="1" source="Tf2ZdH61zpF64rHPYTEZ-13" target="Tf2ZdH61zpF64rHPYTEZ-17">
          <mxGeometry relative="1" as="geometry" />
        </mxCell>
        <mxCell id="Tf2ZdH61zpF64rHPYTEZ-13" value="Sending this SDP offer to peer thourgh signaling channel" style="whiteSpace=wrap;html=1;rounded=0;" vertex="1" parent="1">
          <mxGeometry x="70" y="990" width="120" height="60" as="geometry" />
        </mxCell>
        <mxCell id="Tf2ZdH61zpF64rHPYTEZ-17" value="Peer recieves SDP offer and also gathing its" style="whiteSpace=wrap;html=1;rounded=0;" vertex="1" parent="1">
          <mxGeometry x="70" y="1130" width="120" height="60" as="geometry" />
        </mxCell>
        <mxCell id="Tf2ZdH61zpF64rHPYTEZ-19" value="TURN server" style="shape=umlLifeline;perimeter=lifelinePerimeter;container=1;collapsible=0;recursiveResize=0;rounded=0;shadow=0;strokeWidth=1;" vertex="1" parent="1">
          <mxGeometry x="710" y="330" width="100" height="850" as="geometry" />
        </mxCell>
        <mxCell id="Tf2ZdH61zpF64rHPYTEZ-21" value="" style="html=1;points=[];perimeter=orthogonalPerimeter;" vertex="1" parent="Tf2ZdH61zpF64rHPYTEZ-19">
          <mxGeometry x="45" y="80" width="10" height="60" as="geometry" />
        </mxCell>
        <mxCell id="Tf2ZdH61zpF64rHPYTEZ-42" value="Return ICE candicates" style="html=1;verticalAlign=bottom;endArrow=block;rounded=0;shadow=0;fillColor=#FF3D03;elbow=vertical;" edge="1" parent="Tf2ZdH61zpF64rHPYTEZ-19" source="Tf2ZdH61zpF64rHPYTEZ-21">
          <mxGeometry width="80" relative="1" as="geometry">
            <mxPoint x="55" y="140" as="sourcePoint" />
            <mxPoint x="210" y="140" as="targetPoint" />
            <Array as="points">
              <mxPoint x="210" y="140" />
            </Array>
          </mxGeometry>
        </mxCell>
        <mxCell id="Tf2ZdH61zpF64rHPYTEZ-70" value="" style="endArrow=none;dashed=1;html=1;dashPattern=1 3;strokeWidth=2;rounded=0;shadow=0;fillColor=#FF3D03;elbow=vertical;strokeColor=#F54F49;" edge="1" parent="Tf2ZdH61zpF64rHPYTEZ-19" target="Tf2ZdH61zpF64rHPYTEZ-2">
          <mxGeometry width="50" height="50" relative="1" as="geometry">
            <mxPoint x="-20" y="230" as="sourcePoint" />
            <mxPoint x="219.91000000000008" y="220.0000000000001" as="targetPoint" />
            <Array as="points">
              <mxPoint x="70" y="230" />
              <mxPoint x="200" y="230" />
            </Array>
          </mxGeometry>
        </mxCell>
        <mxCell id="Tf2ZdH61zpF64rHPYTEZ-22" value="Request ICE candicates" style="html=1;verticalAlign=bottom;endArrow=block;entryX=0.552;entryY=0.01;rounded=0;entryDx=0;entryDy=0;entryPerimeter=0;" edge="1" target="Tf2ZdH61zpF64rHPYTEZ-21" parent="1">
          <mxGeometry relative="1" as="geometry">
            <mxPoint x="920" y="411" as="sourcePoint" />
            <Array as="points">
              <mxPoint x="860" y="411" />
            </Array>
          </mxGeometry>
        </mxCell>
        <mxCell id="Tf2ZdH61zpF64rHPYTEZ-24" value="Gathering itself" style="swimlane;fontStyle=1;align=center;verticalAlign=middle;childLayout=stackLayout;horizontal=1;startSize=30;horizontalStack=0;resizeParent=0;resizeLast=1;container=0;fontColor=#000000;collapsible=0;rounded=1;arcSize=30;strokeColor=#ff0000;fillColor=#ffffc0;swimlaneFillColor=#ffffc0;dropTarget=0;" vertex="1" parent="1">
          <mxGeometry x="490" y="130" width="160" height="60" as="geometry" />
        </mxCell>
        <mxCell id="Tf2ZdH61zpF64rHPYTEZ-25" value="Know itself ICE candicates" style="text;html=1;strokeColor=none;fillColor=none;align=center;verticalAlign=middle;spacingLeft=4;spacingRight=4;whiteSpace=wrap;overflow=hidden;rotatable=0;fontColor=#000000;" vertex="1" parent="Tf2ZdH61zpF64rHPYTEZ-24">
          <mxGeometry y="30" width="160" height="30" as="geometry" />
        </mxCell>
        <mxCell id="Tf2ZdH61zpF64rHPYTEZ-27" value="Subtitle" style="text;html=1;strokeColor=none;fillColor=none;align=center;verticalAlign=middle;spacingLeft=4;spacingRight=4;whiteSpace=wrap;overflow=hidden;rotatable=0;fontColor=#000000;" vertex="1" parent="Tf2ZdH61zpF64rHPYTEZ-24">
          <mxGeometry y="60" width="160" as="geometry" />
        </mxCell>
        <mxCell id="Tf2ZdH61zpF64rHPYTEZ-30" value="TURN server" style="shape=umlLifeline;perimeter=lifelinePerimeter;container=1;collapsible=0;recursiveResize=0;rounded=0;shadow=0;strokeWidth=1;" vertex="1" parent="1">
          <mxGeometry x="1420" y="330" width="100" height="880" as="geometry" />
        </mxCell>
        <mxCell id="Tf2ZdH61zpF64rHPYTEZ-32" value="" style="html=1;points=[];perimeter=orthogonalPerimeter;" vertex="1" parent="Tf2ZdH61zpF64rHPYTEZ-30">
          <mxGeometry x="45" y="80" width="10" height="60" as="geometry" />
        </mxCell>
        <mxCell id="Tf2ZdH61zpF64rHPYTEZ-33" value="Request ICE candicates" style="html=1;verticalAlign=bottom;endArrow=block;entryX=0;entryY=0;rounded=0;" edge="1" target="Tf2ZdH61zpF64rHPYTEZ-32" parent="1">
          <mxGeometry relative="1" as="geometry">
            <mxPoint x="1300" y="410" as="sourcePoint" />
          </mxGeometry>
        </mxCell>
        <mxCell id="Tf2ZdH61zpF64rHPYTEZ-43" value="Return ICE candicates" style="html=1;verticalAlign=bottom;endArrow=block;rounded=0;shadow=0;fillColor=#FF3D03;elbow=vertical;" edge="1" parent="1">
          <mxGeometry width="80" relative="1" as="geometry">
            <mxPoint x="1460" y="470" as="sourcePoint" />
            <mxPoint x="1300" y="470" as="targetPoint" />
            <Array as="points">
              <mxPoint x="1310" y="470" />
            </Array>
          </mxGeometry>
        </mxCell>
        <mxCell id="Tf2ZdH61zpF64rHPYTEZ-51" value="" style="endArrow=none;dashed=1;html=1;dashPattern=1 3;strokeWidth=2;rounded=0;shadow=0;fillColor=#FFFA6E;elbow=vertical;strokeColor=#FC524C;" edge="1" parent="1">
          <mxGeometry width="50" height="50" relative="1" as="geometry">
            <mxPoint x="1020" y="470" as="sourcePoint" />
            <mxPoint x="1020" y="160" as="targetPoint" />
          </mxGeometry>
        </mxCell>
        <mxCell id="Tf2ZdH61zpF64rHPYTEZ-52" value="" style="endArrow=none;dashed=1;html=1;dashPattern=1 3;strokeWidth=2;rounded=0;shadow=0;fillColor=#FFFA6E;elbow=vertical;strokeColor=#FC524C;" edge="1" parent="1">
          <mxGeometry width="50" height="50" relative="1" as="geometry">
            <mxPoint x="1020" y="160" as="sourcePoint" />
            <mxPoint x="650" y="160" as="targetPoint" />
          </mxGeometry>
        </mxCell>
        <mxCell id="Tf2ZdH61zpF64rHPYTEZ-60" value="" style="endArrow=classic;html=1;rounded=0;shadow=0;fillColor=#FFFA6E;elbow=vertical;" edge="1" parent="1">
          <mxGeometry width="50" height="50" relative="1" as="geometry">
            <mxPoint x="938" y="495" as="sourcePoint" />
            <mxPoint x="1103" y="495" as="targetPoint" />
            <Array as="points">
              <mxPoint x="1053" y="495" />
            </Array>
          </mxGeometry>
        </mxCell>
        <mxCell id="Tf2ZdH61zpF64rHPYTEZ-61" value="Agent 1 Offer msg" style="text;html=1;align=center;verticalAlign=middle;resizable=0;points=[];autosize=1;strokeColor=none;fillColor=none;" vertex="1" parent="1">
          <mxGeometry x="960" y="470" width="120" height="30" as="geometry" />
        </mxCell>
        <mxCell id="Tf2ZdH61zpF64rHPYTEZ-63" value="Agent 1 Offer msg" style="text;html=1;align=center;verticalAlign=middle;resizable=0;points=[];autosize=1;strokeColor=none;fillColor=none;" vertex="1" parent="1">
          <mxGeometry x="1142" y="470" width="120" height="30" as="geometry" />
        </mxCell>
        <mxCell id="Tf2ZdH61zpF64rHPYTEZ-62" value="" style="endArrow=classic;html=1;rounded=0;shadow=0;fillColor=#FFFA6E;elbow=vertical;" edge="1" parent="1">
          <mxGeometry width="50" height="50" relative="1" as="geometry">
            <mxPoint x="1120" y="495" as="sourcePoint" />
            <mxPoint x="1285" y="495" as="targetPoint" />
            <Array as="points">
              <mxPoint x="1235" y="495" />
            </Array>
          </mxGeometry>
        </mxCell>
        <mxCell id="Tf2ZdH61zpF64rHPYTEZ-72" value="" style="endArrow=none;dashed=1;html=1;dashPattern=1 3;strokeWidth=2;rounded=0;shadow=0;fillColor=#FFFA6E;elbow=vertical;strokeColor=#FF524D;" edge="1" parent="1">
          <mxGeometry width="50" height="50" relative="1" as="geometry">
            <mxPoint x="690" y="560" as="sourcePoint" />
            <mxPoint x="690" y="240" as="targetPoint" />
          </mxGeometry>
        </mxCell>
        <mxCell id="Tf2ZdH61zpF64rHPYTEZ-73" value="Gathering the other" style="swimlane;fontStyle=1;align=center;verticalAlign=middle;childLayout=stackLayout;horizontal=1;startSize=30;horizontalStack=0;resizeParent=0;resizeLast=1;container=0;fontColor=#000000;collapsible=0;rounded=1;arcSize=30;strokeColor=#ff0000;fillColor=#ffffc0;swimlaneFillColor=#ffffc0;dropTarget=0;" vertex="1" parent="1">
          <mxGeometry x="490" y="210" width="160" height="60" as="geometry" />
        </mxCell>
        <mxCell id="Tf2ZdH61zpF64rHPYTEZ-74" value="Know the other agent ICE candicates" style="text;html=1;strokeColor=none;fillColor=none;align=center;verticalAlign=middle;spacingLeft=4;spacingRight=4;whiteSpace=wrap;overflow=hidden;rotatable=0;fontColor=#000000;" vertex="1" parent="Tf2ZdH61zpF64rHPYTEZ-73">
          <mxGeometry y="30" width="160" height="30" as="geometry" />
        </mxCell>
        <mxCell id="Tf2ZdH61zpF64rHPYTEZ-75" value="Subtitle" style="text;html=1;strokeColor=none;fillColor=none;align=center;verticalAlign=middle;spacingLeft=4;spacingRight=4;whiteSpace=wrap;overflow=hidden;rotatable=0;fontColor=#000000;" vertex="1" parent="Tf2ZdH61zpF64rHPYTEZ-73">
          <mxGeometry y="60" width="160" as="geometry" />
        </mxCell>
        <mxCell id="Tf2ZdH61zpF64rHPYTEZ-76" value="" style="endArrow=none;dashed=1;html=1;dashPattern=1 3;strokeWidth=2;rounded=0;shadow=0;fillColor=#FFFA6E;elbow=vertical;strokeColor=#FF524D;" edge="1" parent="1">
          <mxGeometry width="50" height="50" relative="1" as="geometry">
            <mxPoint x="690" y="240.24" as="sourcePoint" />
            <mxPoint x="650" y="239.76" as="targetPoint" />
          </mxGeometry>
        </mxCell>
        <mxCell id="Tf2ZdH61zpF64rHPYTEZ-66" value="Agent 2 Answer msg" style="text;html=1;align=center;verticalAlign=middle;resizable=0;points=[];autosize=1;strokeColor=none;fillColor=none;" vertex="1" parent="1">
          <mxGeometry x="1140" y="526" width="130" height="30" as="geometry" />
        </mxCell>
      </root>
    </mxGraphModel>
  </diagram>
</mxfile>
